<svg xmlns="http://www.w3.org/2000/svg" width="1241.1506877232723" height="378.78082213255936" fill="none">
    <rect width="100%" height="100%" x="0" y="0" fill="none" stroke="none"/>
    <g>
        <path opacity="1" d="M26.43719509939732,70.5543593991988 C3.9741946993309467,102.23919040143421 5.615178410075921,104.40530952197483 7.661361165301824,177.5312364061873 C9.707543920527726,250.65716329039984 0.5423141197103502,273.93107830693657 9.201577022953646,293.41799549176625 C29.08225135426107,338.15615638616015 29.367933411999363,363.88451664616997 98.36914035062375,360.8161980769866 C131.5631979055244,359.33893344380783 156.51842464844765,354.5358270824187 194.76186262945717,352.83098384358817 C586.5228626252252,335.3633277080291 1114.4183553514915,391.8627110164397 1174.4914985416372,365.29390695836474 C1269.4957660643297,323.2787041175597 1234.374852952166,241.5929569652312 1203.9387260315855,173.86536429288319 C1195.2683754680593,154.5720885532134 1185.7090143052776,135.71700144460132 1176.2994863895613,116.79004740788868 C1158.2395856765945,80.45462763612203 1146.5725701717574,40.750645239996224 1108.3051588712174,20.748581921934395 C1043.317485177322,-13.224212588525504 836.6325097335416,9.761116785616188 586.5228626252252,16.253405384420663 C321.6276706964809,23.12937354562214 74.34387862782064,2.9791345959418107 26.43719509939732,70.5543593991988 z" fill="#12112D" id="svg_1" class="" />
    </g>
</svg>