<svg width="174" height="184" viewBox="0 0 174 184" fill="none" xmlns="http://www.w3.org/2000/svg">
<path d="M46.6583 151.692C46.1637 151.459 45.7434 151.06 45.4882 150.528C44.899 149.3 45.4177 147.826 46.6466 147.236L135.453 104.657C136.682 104.068 138.156 104.587 138.745 105.815C139.334 107.044 138.815 108.518 137.586 109.107L48.7806 151.687C48.0834 152.021 47.3068 151.999 46.6583 151.692Z" fill="#7CC3D1"/>
<path d="M113.85 107.102C130.7 115.06 150.811 107.852 158.769 91.0026C166.727 74.1531 159.52 54.0423 142.67 46.084C125.821 38.1256 105.71 45.3334 97.7514 62.1829C89.7931 79.0325 97.0008 99.1432 113.85 107.102Z" fill="#8ED7E0"/>
<path d="M104.813 92.3045C103.734 77.0641 113.15 57.5043 125.844 48.6166C132.192 44.1728 138.157 43.2386 142.67 45.3202C135.098 41.8277 126.073 41.351 117.392 44.7184C100.029 51.453 90.6134 71.0128 96.3611 88.4062C99.235 97.1031 105.356 103.611 112.928 107.104C108.415 105.023 105.353 99.9248 104.813 92.3045Z" fill="#7CC3D1"/>
<path d="M23.4205 73.5504C22.7835 73.257 22.2904 72.6778 22.1251 71.9222C21.8339 70.591 22.67 69.2175 23.9934 68.8544L119.612 42.6018C120.936 42.2387 122.244 43.0233 122.536 44.354C122.827 45.6852 121.991 47.0587 120.667 47.4219L25.0484 73.675C24.4759 73.8319 23.9065 73.7742 23.4205 73.5504Z" fill="#7CC3D1"/>
<path d="M22.5054 117.657C21.9461 117.4 21.4935 116.92 21.2813 116.278C20.8566 114.995 21.5524 113.553 22.8352 113.056L111.591 78.6931C112.874 78.1963 114.259 78.8337 114.683 80.1166C115.108 81.3996 114.412 82.8424 113.129 83.3386L24.3735 117.702C23.7317 117.95 23.065 117.915 22.5054 117.657Z" fill="#7CC3D1"/>
<path d="M143.448 77.3101C147.542 79.2439 152.429 77.4925 154.363 73.3981C156.297 69.3037 154.545 64.4168 150.451 62.483C146.357 60.5491 141.47 62.3006 139.536 66.395C137.602 70.4894 139.353 75.3762 143.448 77.3101Z" fill="#666666"/>
<path d="M142.395 79.5361C139.925 78.3695 137.899 76.2628 136.908 73.4947C135.947 70.8126 136.087 67.9169 137.304 65.3409C138.521 62.7645 140.668 60.8164 143.35 59.8555C148.887 57.8712 155.005 60.7611 156.989 66.2978C157.951 68.9799 157.81 71.8756 156.593 74.4516C155.377 77.0275 153.229 78.9758 150.547 79.937C147.779 80.9289 144.865 80.7025 142.395 79.5361ZM149.395 64.7165C148.068 64.0898 146.502 63.9682 145.015 64.5013C143.574 65.0177 142.42 66.0643 141.766 67.4487C141.112 68.8326 141.037 70.3889 141.553 71.83C142.62 74.8047 145.907 76.3574 148.882 75.2915C150.323 74.775 151.477 73.728 152.131 72.3441C152.784 70.9599 152.86 69.4038 152.343 67.9628C151.81 66.4748 150.722 65.3431 149.395 64.7165Z" fill="#7CC3D1"/>
</svg>
