<?xml version="1.0" standalone="no"?>
<!DOCTYPE svg PUBLIC "-//W3C//DTD SVG 20010904//EN"
 "http://www.w3.org/TR/2001/REC-SVG-20010904/DTD/svg10.dtd">
<svg version="1.0" xmlns="http://www.w3.org/2000/svg"
 width="672.000000pt" height="672.000000pt" viewBox="0 0 672.000000 672.000000"
 preserveAspectRatio="xMidYMid meet">
<metadata>
Created by potrace 1.14, written by Peter Selinger 2001-2017
</metadata>
<g transform="translate(0.000000,672.000000) scale(0.100000,-0.100000)"
fill="#000000" stroke="none">
<path d="M2165 6540 c-22 -11 -44 -19 -48 -20 -50 -2 -565 -276 -662 -352 -5
-4 -48 -36 -95 -70 -191 -138 -422 -349 -551 -503 -19 -22 -36 -42 -39 -45 -3
-3 -25 -30 -50 -60 -25 -30 -48 -56 -52 -58 -5 -2 -8 -9 -8 -17 0 -7 -7 -18
-15 -25 -20 -17 -175 -246 -175 -259 0 -6 -4 -11 -9 -11 -5 0 -12 -11 -15 -25
-4 -14 -11 -25 -17 -25 -6 0 -8 -4 -5 -9 3 -5 -1 -14 -9 -21 -8 -7 -15 -16
-15 -21 0 -4 -14 -31 -30 -59 -17 -28 -30 -57 -30 -65 0 -8 -4 -15 -8 -15 -5
0 -15 -18 -22 -40 -7 -22 -16 -40 -19 -40 -4 0 -7 -10 -8 -22 -1 -11 -6 -24
-10 -27 -8 -6 -74 -164 -77 -186 -1 -5 -5 -15 -9 -22 -13 -21 -67 -204 -97
-328 -27 -112 -34 -144 -46 -220 -2 -16 -6 -41 -9 -55 -6 -34 -13 -92 -22
-170 -9 -89 -10 -489 -1 -575 12 -115 18 -169 22 -190 2 -11 7 -36 10 -55 9
-55 16 -88 21 -112 3 -13 7 -32 9 -43 2 -11 9 -38 14 -60 6 -22 13 -52 16 -66
4 -27 59 -202 79 -254 7 -16 12 -32 13 -35 0 -3 6 -18 12 -33 7 -16 12 -31 12
-33 0 -3 11 -30 25 -60 14 -30 25 -56 25 -58 0 -12 92 -196 100 -201 6 -4 8
-10 5 -15 -2 -4 4 -19 15 -33 11 -14 20 -27 20 -30 0 -5 41 -74 113 -191 7
-11 20 -29 30 -40 9 -11 17 -23 17 -27 0 -6 158 -217 184 -246 6 -6 34 -37 61
-69 220 -256 561 -533 870 -709 105 -60 367 -189 408 -200 4 -2 9 -4 12 -5 3
-1 8 -3 13 -4 4 -1 24 -10 45 -19 73 -32 339 -118 412 -133 11 -2 56 -13 100
-24 44 -10 96 -21 115 -24 19 -3 62 -10 95 -16 200 -35 312 -44 590 -44 232 0
366 7 505 29 14 2 43 7 65 10 64 9 245 45 305 61 155 42 333 97 387 120 17 8
37 14 45 14 8 0 18 4 24 8 5 5 41 21 79 37 83 33 277 129 355 174 30 18 63 35
73 38 9 3 17 9 17 14 0 5 5 9 10 9 26 0 358 237 466 333 189 167 284 265 422
437 43 52 81 99 85 105 19 23 143 206 161 237 11 18 39 65 62 105 53 90 185
364 179 371 -1 1 -51 -14 -111 -33 -60 -20 -116 -38 -124 -40 -8 -2 -58 -15
-110 -29 -98 -25 -219 -52 -287 -62 -21 -3 -45 -7 -53 -9 -8 -2 -42 -7 -75
-11 -33 -3 -69 -8 -80 -10 -135 -25 -715 -24 -849 2 -11 2 -41 6 -66 9 -42 5
-121 18 -180 30 -64 13 -86 17 -105 21 -32 5 -189 44 -205 51 -8 3 -19 7 -25
8 -80 20 -409 141 -472 173 -10 6 -65 33 -123 62 -152 76 -205 104 -208 113
-2 4 -8 7 -14 7 -5 0 -29 14 -53 30 -24 17 -48 30 -54 30 -6 0 -11 3 -11 8 0
4 -17 16 -37 27 -20 11 -41 25 -47 30 -6 6 -22 17 -36 26 -150 96 -440 357
-595 534 -33 38 -68 77 -77 87 -10 10 -18 21 -18 26 0 4 -15 23 -33 43 -17 20
-36 43 -42 52 -5 8 -30 44 -55 79 -223 313 -403 705 -495 1078 -13 52 -38 169
-41 193 -2 15 -6 39 -9 55 -27 140 -39 294 -39 512 0 171 7 320 18 370 3 14 8
48 10 75 3 28 7 61 10 75 9 46 16 85 22 120 3 19 8 44 12 55 3 11 6 22 7 25 6
31 30 125 42 160 8 25 16 52 18 60 5 24 46 143 60 175 15 33 29 85 24 85 -2
-1 -22 -9 -44 -20z"/>
</g>
</svg>
