<svg xmlns="http://www.w3.org/2000/svg" width="55" height="38" fill="none"><rect id="backgroundrect" width="100%" height="100%" x="0" y="0" fill="none" stroke="none" class="" style=""/>






<g class="currentLayer" style=""><title>Layer 1</title><path d="M48.8233381111145,28.5096487487793 L49.252338111114504,29.9039487487793 C49.5958381111145,31.0212487487793 50.7796381111145,31.5989487487793 51.8963381111145,31.1952487487793 C51.897038111114504,31.1950487487793 51.897038111114504,31.1950487487793 51.8976381111145,31.194748748779297 L53.920138111114504,30.463948748779295 C55.0366381111145,30.059648748779296 55.6633381111145,28.826748748779295 55.3201381111145,27.7100487487793 L47.2303381111145,1.4190487487792964 C46.8864381111145,0.30254874877929616 45.7026381111145,-0.27515125122070216 44.5863381111145,0.12884874877929775 L42.5640381111145,0.8602487487792967 C41.4470381111145,1.2644487487792961 40.8203381111145,2.497248748779297 41.1636381111145,3.613948748779297 C41.1638381111145,3.614648748779297 41.1638381111145,3.614648748779297 41.1636381111145,3.615048748779296 L41.5926381111145,5.009348748779296 L48.8233381111145,28.5096487487793 z" fill="#BCBEC0" id="svg_1" class=""/><path d="M40.5607381111145,26.1905487487793 C42.9279381111145,27.900848748779296 45.852538111114505,28.680348748779295 48.8233381111145,28.3921487487793 L41.5921381111145,4.892748748779297 C35.6182381111145,8.920348748779297 33.754738111114506,16.954548748779295 37.4305381111145,22.8380487487793 C38.2518381111145,24.1526487487793 39.312938111114505,25.289348748779297 40.5607381111145,26.1905487487793 z" fill="#D1D3D4" id="svg_2" class=""/><path d="M48.8233381111145,28.425248748779296 L41.5921381111145,4.925848748779298 L48.8233381111145,28.425248748779296 z" fill="#BCBEC0" id="svg_3" class=""/><path d="M32.9046381111145,12.817548748779299 L25.7824381111145,15.396148748779297 L32.9046381111145,12.817548748779299 z" fill="#FFDA44" id="svg_4" class=""/><path d="M36.0850381111145,11.371448748779297 L32.9754381111145,12.496248748779298 L25.8606381111145,15.071048748779297 L1.4924681111145022,23.889348748779298 C0.3767681111145018,24.2930487487793 -0.24926188888549738,25.5244487487793 0.0940481111145024,26.640148748779296 L1.6469281111145024,31.690148748779293 L35.988238111114505,19.263948748779296 C35.2000381111145,16.7291487487793 35.2340381111145,13.966448748779296 36.0850381111145,11.371448748779297 z" fill="#262685" id="svg_5" class=""/><path d="M36.224538111114505,19.250248748779295 L1.8085681111145018,31.705048748779298 L3.366748111114502,36.765948748779294 C3.7108081111145026,37.884148748779296 4.895938111114502,38.4625487487793 6.013638111114503,38.0576487487793 L40.682138111114504,25.512548748779295 C38.5600381111145,23.988148748779295 36.9996381111145,21.7962487487793 36.224538111114505,19.250248748779295 z" fill="#45459E" id="svg_6" class=""/></g></svg>