<svg width="26" height="36" viewBox="0 0 26 36" fill="none" xmlns="http://www.w3.org/2000/svg">
<path d="M0.929192 35.7935C1.20915 35.9464 1.52411 36.0167 1.83984 35.9967C2.15557 35.9767 2.45998 35.8672 2.71997 35.6801L25.2563 19.4804C25.4859 19.3141 25.6734 19.0926 25.8029 18.8348C25.9324 18.5771 26 18.2907 26 18C26 17.7093 25.9324 17.4228 25.8029 17.1651C25.6734 16.9073 25.4859 16.6859 25.2563 16.5195L2.71997 0.319788C2.45989 0.132936 2.15554 0.0235232 1.83986 0.00338534C1.52419 -0.0167487 1.20922 0.0531671 0.929073 0.20556C0.648923 0.35795 0.414262 0.587019 0.250499 0.867948C0.0867359 1.14888 0.000111737 1.47098 4.89726e-06 1.79936L2.06482e-06 34.1987C-5.13697e-05 34.5273 0.0865136 34.8496 0.250309 35.1307C0.414103 35.4119 0.648878 35.6411 0.929192 35.7935ZM3.46714 5.2355L21.2241 17.9991L3.46714 30.7626L3.46714 5.2355Z" fill="#FF9A00"/>
</svg>
