<svg width="180" height="180" viewBox="0 0 180 180" fill="none" xmlns="http://www.w3.org/2000/svg">
<path d="M179.896 89.9485C179.896 139.623 139.623 179.896 89.948 179.896C40.2691 179.896 0 139.623 0 89.9485C0 40.2696 40.2691 0.000610352 89.948 0.000610352C139.623 0.000610352 179.896 40.2696 179.896 89.9485Z" fill="#EB8A69"/>
<path d="M0.0640877 93.3774C0.0640877 93.3689 0.0640877 93.3603 0.0640877 93.3518C0.0640877 93.3603 0.0640877 93.3646 0.0640877 93.3774ZM0.0469698 92.9242C0.0469698 92.9157 0.0469698 92.9072 0.0469698 92.8987C0.0469698 92.9072 0.0469698 92.9157 0.0469698 92.9242ZM0.0342358 92.4711C0.0342358 92.4669 0.0342358 92.454 0.0342358 92.4497C0.0342358 92.454 0.0342358 92.4669 0.0342358 92.4711ZM0.0298519 92.2403C0.0298519 92.2317 0.0298519 92.2188 0.0298519 92.2103C0.0298519 92.2188 0.0298519 92.2317 0.0298519 92.2403ZM0.0215017 92.0094V92.0008V92.0094ZM0.0171179 91.7828C0.0171179 91.7785 0.0171179 91.7699 0.0171179 91.7614C0.0171179 91.7656 0.0171179 91.7785 0.0171179 91.7828ZM0.00855894 91.3381C0.00855894 91.3253 0.00855894 91.3125 0.00855894 91.304C0.00855894 91.3125 0.00855894 91.3253 0.00855894 91.3381ZM0.00855894 91.0987C0.00855894 91.0901 0.00855894 91.0774 0.00855894 91.0688C0.00855894 91.0816 0.00855894 91.0859 0.00855894 91.0987ZM0.00438385 90.8849C0.00438385 90.8721 0.00438385 90.8636 0.00438385 90.8508C0.00438385 90.8636 0.00438385 90.8721 0.00438385 90.8849ZM0.00438385 90.6456C0.00438385 90.6327 0.00438385 90.6242 0.00438385 90.6113C0.00438385 90.6242 0.00438385 90.6327 0.00438385 90.6456ZM0 90.419C0 90.4147 0 90.4061 0 90.4019C0 90.4061 0 90.4147 0 90.419ZM0 90.1966C0 90.1795 0 90.171 0 90.1539C0 90.1667 0 90.1838 0 90.1966ZM92.2224 0.0264435C92.2138 0.0264435 92.2139 0.0264435 92.2096 0.0264435C92.2139 0.0264435 92.2181 0.0264435 92.2224 0.0264435ZM92.0472 0.0221634C92.0429 0.0221634 92.0429 0.0221634 92.0387 0.0221634C92.0429 0.0221634 92.0429 0.0221634 92.0472 0.0221634ZM91.5212 0.0136032C91.5212 0.0136032 91.5171 0.0136032 91.5128 0.0136032H91.5212ZM91.3587 0.00932312C91.3502 0.00932312 91.3374 0.00932312 91.3289 0.00932312C91.3374 0.00932312 91.3502 0.00932312 91.3587 0.00932312ZM91.1963 0.00932312C91.1835 0.00932312 91.1665 0.00932312 91.1494 0.00932312C91.1665 0.00932312 91.1792 0.00932312 91.1963 0.00932312ZM91.0295 0.00504303C91.0167 0.00504303 90.9996 0.00504303 90.9867 0.00504303C90.9996 0.00504303 91.0167 0.00504303 91.0295 0.00504303ZM90.8287 0.00504303C90.8244 0.00504303 90.8244 0.00504303 90.8202 0.00504303C90.8244 0.00504303 90.8244 0.00504303 90.8287 0.00504303ZM90.6577 0.000762939C90.6449 0.000762939 90.632 0.000762939 90.6191 0.000762939C90.632 0.000762939 90.6449 0.000762939 90.6577 0.000762939ZM90.4951 0.000762939C90.478 0.000762939 90.461 0.000762939 90.4396 0.000762939C90.461 0.000762939 90.478 0.000762939 90.4951 0.000762939ZM90.3285 0.000762939C90.3114 0.000762939 90.2943 0.000762939 90.2772 0.000762939C90.2943 0.000762939 90.3114 0.000762939 90.3285 0.000762939ZM90.1574 0.000762939C90.1403 0.000762939 90.1275 0.000762939 90.1104 0.000762939C90.1275 0.000762939 90.1403 0.000762939 90.1574 0.000762939Z" fill="#363E4F"/>
<path d="M64.7365 145.736C42.7401 145.736 22.6034 137.835 6.97721 124.727C9.33717 130.345 12.2488 135.681 15.6476 140.653C6.49421 127.271 0.863593 111.29 0.0897645 94.0435C0.0897645 93.9666 0.0854808 93.8939 0.0812055 93.8169C0.0769303 93.6673 0.068363 93.5219 0.0640877 93.3766C0.0640877 93.3637 0.0640877 93.3594 0.0640877 93.3509C0.0598124 93.2098 0.0512451 93.0644 0.0469698 92.9234C0.0469698 92.9148 0.0469698 92.9063 0.0469698 92.8978C0.0426945 92.7567 0.0385111 92.6156 0.0342358 92.4702C0.0342358 92.466 0.0342358 92.4531 0.0342358 92.4489C0.0342358 92.3762 0.0298519 92.312 0.0298519 92.2394C0.0298519 92.2308 0.0298519 92.218 0.0298519 92.2094C0.0255766 92.1453 0.025777 92.0769 0.0215017 92.0085V91.9999C0.0215017 91.923 0.0213932 91.8588 0.0171179 91.7819C0.0171179 91.7776 0.0171179 91.7648 0.0171179 91.7605C0.0171179 91.6194 0.0128342 91.4783 0.00855894 91.3372C0.00855894 91.3244 0.00855894 91.3117 0.00855894 91.3031C0.00855894 91.2304 0.00855894 91.1662 0.00855894 91.0978C0.00855894 91.085 0.00855894 91.0808 0.00855894 91.0679C0.00428364 91.0081 0.00438385 90.9439 0.00438385 90.884C0.00438385 90.8712 0.00438385 90.8627 0.00438385 90.8499C0.00438385 90.7815 0.00438385 90.7131 0.00438385 90.6447C0.00438385 90.6319 0.00438385 90.6233 0.00438385 90.6105C0.000108552 90.5463 0 90.4822 0 90.4181C0 90.4138 0 90.4052 0 90.401C0 90.3326 0 90.2599 0 90.1958C0 90.1829 0 90.1658 0 90.153C0 90.0846 0 90.0162 0 89.9478C0 40.2688 40.2691 -0.00012207 89.948 -0.00012207C90.0036 -0.00012207 90.0591 -0.00012207 90.1104 -0.00012207C90.1275 -0.00012207 90.1403 -0.00012207 90.1574 -0.00012207C90.1958 -0.00012207 90.2344 -0.00012207 90.2772 -0.00012207C90.2943 -0.00012207 90.3114 -0.00012207 90.3285 -0.00012207C90.3627 -0.00012207 90.4054 -0.00012207 90.4396 -0.00012207C90.461 -0.00012207 90.478 -0.00012207 90.4951 -0.00012207C90.5379 -0.00012207 90.5764 -0.00012207 90.6191 -0.00012207C90.632 -0.00012207 90.6449 -0.00012207 90.6577 -0.00012207C90.7091 0.00415039 90.7689 0.00415039 90.8202 0.00415039C90.8244 0.00415039 90.8244 0.00415039 90.8287 0.00415039C90.88 0.00415039 90.9312 0.00415039 90.9867 0.00415039C90.9996 0.00415039 91.0167 0.00415039 91.0295 0.00415039C91.0723 0.00415039 91.1109 0.00843811 91.1494 0.00843811C91.1665 0.00843811 91.1835 0.00843811 91.1963 0.00843811C91.2391 0.00843811 91.2819 0.00843811 91.3289 0.00843811C91.3374 0.00843811 91.3502 0.00843811 91.3587 0.00843811C91.41 0.0127106 91.4615 0.0127106 91.5128 0.0127106C91.5171 0.0127106 91.5212 0.0127106 91.5212 0.0127106C91.6366 0.0127106 91.752 0.0169983 91.8675 0.0212708C91.9273 0.0212708 91.9831 0.0212708 92.0387 0.0212708C92.0429 0.0212708 92.0429 0.0212708 92.0472 0.0212708C92.1028 0.0255432 92.1541 0.0255432 92.2096 0.0255432C92.2139 0.0255432 92.2138 0.0255432 92.2224 0.0255432C113.329 0.551407 132.624 8.35376 147.707 21.0129C151.025 28.9222 153.248 37.4044 154.184 46.2757C148.759 51.1153 141.871 55.3906 134.941 55.3906C131.465 55.3906 127.977 54.3132 124.659 51.6967C107.413 38.0884 89.9778 27.8448 80.2173 27.8448C72.3037 27.8448 69.4266 34.5742 75.7754 51.6967C85.6 78.2121 122.017 95.3903 137.096 109.225C130.777 117.767 122.979 125.155 114.086 130.999C104.805 128.485 95.198 123.017 86.4678 117.549C74.5868 110.106 64.326 102.667 58.7168 102.667C56.934 102.667 55.6173 103.415 54.8734 105.159C50.4699 115.433 73.4795 129.366 83.411 143.795C77.3871 145.069 71.1366 145.736 64.7365 145.736ZM15.7288 140.764C15.7117 140.743 15.6946 140.717 15.6775 140.695C15.6946 140.717 15.7117 140.743 15.7288 140.764Z" fill="#EF9977"/>
<path d="M89.751 179.896C89.7382 179.896 89.721 179.896 89.7082 179.896C89.721 179.896 89.7382 179.896 89.751 179.896ZM89.5201 179.896C89.5116 179.896 89.5072 179.896 89.4986 179.896C89.5029 179.896 89.5158 179.896 89.5201 179.896ZM89.3149 179.892C89.3021 179.892 89.2849 179.892 89.2721 179.892C89.2849 179.892 89.2978 179.892 89.3149 179.892ZM89.0755 179.892C89.0712 179.892 89.0669 179.892 89.0669 179.892C89.0712 179.892 89.0712 179.892 89.0755 179.892ZM88.8788 179.888C88.866 179.888 88.8488 179.888 88.836 179.888C88.8488 179.888 88.866 179.888 88.8788 179.888ZM88.6394 179.888C88.6351 179.888 88.6351 179.888 88.6308 179.888C88.6351 179.888 88.6351 179.888 88.6394 179.888ZM88.4427 179.884C88.4299 179.884 88.4129 179.884 88.3958 179.884C88.4129 179.884 88.4299 179.884 88.4427 179.884ZM88.2033 179.879H88.1991C88.2034 179.879 88.199 179.879 88.2033 179.879ZM88.0023 179.875C87.9894 179.875 87.9809 179.875 87.9638 179.875C87.9767 179.875 87.9894 179.875 88.0023 179.875ZM87.5662 179.867C87.5533 179.867 87.545 179.867 87.5321 179.862C87.5407 179.867 87.5533 179.867 87.5662 179.867ZM87.1345 179.854C87.1216 179.854 87.1089 179.854 87.0961 179.854C87.1089 179.854 87.1216 179.854 87.1345 179.854ZM86.6942 179.837C86.6857 179.837 86.6727 179.837 86.6641 179.837C86.6727 179.837 86.6857 179.837 86.6942 179.837ZM86.2623 179.824C86.2537 179.819 86.241 179.819 86.2324 179.819C86.241 179.819 86.2537 179.819 86.2623 179.824ZM85.8176 179.802C85.8134 179.802 85.8134 179.802 85.8091 179.802C85.8134 179.802 85.8134 179.802 85.8176 179.802ZM179.896 89.7946C179.896 89.7775 179.896 89.7647 179.896 89.7476C179.896 89.7604 179.896 89.7818 179.896 89.7946ZM179.896 89.6364C179.896 89.6193 179.896 89.598 179.896 89.5809C179.896 89.598 179.896 89.6193 179.896 89.6364ZM179.896 89.4826C179.896 89.4655 179.896 89.444 179.896 89.4226C179.896 89.444 179.896 89.4612 179.896 89.4826ZM179.896 89.3286C179.896 89.3072 179.896 89.2859 179.891 89.2645C179.896 89.2859 179.896 89.3072 179.896 89.3286ZM179.891 89.1705C179.891 89.1491 179.891 89.1319 179.891 89.1148C179.891 89.1319 179.891 89.1534 179.891 89.1705ZM179.891 89.0122C179.891 88.9951 179.891 88.9738 179.891 88.9567C179.891 88.9738 179.891 88.9951 179.891 89.0122ZM179.891 88.8455C179.887 88.8284 179.887 88.8199 179.887 88.807C179.887 88.8199 179.887 88.8327 179.891 88.8455ZM179.887 88.683C179.887 88.6702 179.887 88.6573 179.887 88.6488C179.887 88.6573 179.887 88.6702 179.887 88.683ZM179.883 88.3324C179.883 88.3281 179.883 88.324 179.883 88.3154C179.883 88.324 179.883 88.3239 179.883 88.3324ZM179.879 88.1743C179.879 88.1657 179.879 88.1572 179.879 88.1529C179.879 88.1614 179.879 88.1657 179.879 88.1743ZM179.874 88.0203C179.874 88.0075 179.874 87.999 179.874 87.9862C179.874 87.999 179.874 88.0075 179.874 88.0203ZM179.874 87.8536C179.87 87.8494 179.87 87.8408 179.87 87.8365C179.87 87.8408 179.87 87.8494 179.874 87.8536ZM179.87 87.6911C179.87 87.6869 179.87 87.6826 179.87 87.6783C179.87 87.6826 179.87 87.6869 179.87 87.6911Z" fill="#16212E"/>
<path d="M89.9476 179.896C89.8835 179.896 89.8193 179.896 89.7509 179.896C89.7381 179.896 89.721 179.896 89.7081 179.896C89.644 179.896 89.5842 179.896 89.5201 179.896C89.5158 179.896 89.5028 179.896 89.4986 179.896C89.4387 179.896 89.3747 179.892 89.3148 179.892C89.2977 179.892 89.2849 179.892 89.272 179.892C89.2037 179.892 89.1395 179.892 89.0754 179.892C89.0711 179.892 89.0711 179.892 89.0668 179.892C89.0027 179.892 88.9429 179.892 88.8788 179.888C88.8659 179.888 88.8488 179.888 88.836 179.888C88.7676 179.888 88.7034 179.888 88.6393 179.888C88.635 179.888 88.635 179.888 88.6308 179.888C88.5709 179.884 88.5068 179.884 88.4427 179.884C88.4298 179.884 88.4128 179.884 88.3957 179.884C88.3316 179.884 88.2674 179.879 88.2032 179.879C88.199 179.879 88.2033 179.879 88.1991 179.879C88.1306 179.879 88.0706 179.875 88.0022 179.875C87.9894 179.875 87.9766 179.875 87.9638 179.875C87.8355 179.871 87.6986 179.867 87.5661 179.867C87.5533 179.867 87.5406 179.867 87.5321 179.862C87.3996 179.862 87.2627 179.858 87.1344 179.854C87.1216 179.854 87.1088 179.854 87.096 179.854C86.9592 179.849 86.8309 179.845 86.6941 179.837C86.6856 179.837 86.6726 179.837 86.6641 179.837C86.5273 179.832 86.399 179.828 86.2622 179.824C86.2537 179.819 86.2409 179.819 86.2324 179.819C86.0956 179.815 85.9544 179.811 85.8176 179.802C85.8133 179.802 85.8133 179.802 85.809 179.802C56.7028 178.481 31.205 163.33 15.7284 140.765C26.3483 156.241 41.6879 168.233 59.6698 174.659C69.0413 174.108 77.7032 171.547 83.4706 165.373C90.0631 158.319 88.3657 150.995 83.4106 143.796C94.5307 141.449 104.894 137.045 114.086 131C117.438 131.911 120.743 132.432 123.953 132.432C129.905 132.432 135.509 130.636 140.422 126.156C146.266 120.82 143.769 115.352 137.095 109.226C148.147 94.2837 154.684 75.8016 154.684 55.7889C154.684 52.5782 154.513 49.4016 154.184 46.2764C157.779 43.0657 160.734 39.6069 162.628 36.9776C158.314 31.0692 153.299 25.7079 147.707 21.0136C147.707 21.0136 147.707 21.0136 147.707 21.0094C166.839 37.0588 179.203 60.9149 179.87 87.6783C179.87 87.6826 179.87 87.6869 179.87 87.6911C179.87 87.7382 179.87 87.7852 179.87 87.8365C179.87 87.8408 179.87 87.8494 179.874 87.8536C179.874 87.9007 179.874 87.9435 179.874 87.9862C179.874 87.999 179.874 88.0075 179.874 88.0203C179.878 88.0631 179.878 88.1101 179.878 88.1529C179.878 88.1572 179.878 88.1657 179.878 88.1743C179.878 88.2213 179.878 88.2684 179.883 88.3154C179.883 88.324 179.883 88.3281 179.883 88.3324C179.883 88.435 179.887 88.5419 179.887 88.6488C179.887 88.6573 179.887 88.6702 179.887 88.683C179.887 88.7258 179.887 88.7643 179.887 88.807C179.887 88.8199 179.887 88.8284 179.891 88.8455C179.891 88.884 179.891 88.9182 179.891 88.9567C179.891 88.9738 179.891 88.9951 179.891 89.0122C179.891 89.0464 179.891 89.0806 179.891 89.1148C179.891 89.1319 179.891 89.1491 179.891 89.1705C179.891 89.2004 179.891 89.2346 179.891 89.2645C179.895 89.2859 179.896 89.3072 179.896 89.3286C179.896 89.3585 179.896 89.3927 179.896 89.4226C179.896 89.444 179.896 89.4655 179.896 89.4826C179.896 89.5168 179.896 89.551 179.896 89.5809C179.896 89.598 179.896 89.6193 179.896 89.6364C179.896 89.6749 179.896 89.7091 179.896 89.7476C179.896 89.7647 179.896 89.7775 179.896 89.7946C179.896 89.8459 179.896 89.8972 179.896 89.9485C179.896 139.623 139.622 179.896 89.9476 179.896ZM15.6771 140.696C15.6685 140.679 15.66 140.666 15.6472 140.654C15.66 140.666 15.6685 140.679 15.6771 140.696Z" fill="#E07355"/>
<path d="M59.6696 174.659C41.6877 168.233 26.348 156.241 15.7282 140.764C15.7111 140.743 15.6939 140.717 15.6768 140.696C15.6683 140.679 15.6598 140.666 15.647 140.653C12.2481 135.681 9.33653 130.345 6.97656 124.728C22.6028 137.836 42.7394 145.736 64.7358 145.736C71.136 145.736 77.3865 145.069 83.4104 143.795C88.3655 150.995 90.0628 158.319 83.4703 165.373C77.7029 171.546 69.041 174.107 59.6696 174.659ZM123.953 132.432C120.742 132.432 117.437 131.91 114.086 130.999C122.978 125.155 130.776 117.767 137.095 109.225C143.769 115.352 146.266 120.82 140.422 126.155C135.509 130.636 129.904 132.432 123.953 132.432ZM154.184 46.2759C153.247 37.4046 151.024 28.9224 147.707 21.0131C153.299 25.7074 158.314 31.0686 162.627 36.9771C160.733 39.6064 157.779 43.0651 154.184 46.2759Z" fill="#E48161"/>
</svg>
