<svg width="1600" height="677" viewBox="0 0 1600 677" fill="none" xmlns="http://www.w3.org/2000/svg">
<rect width="1600" height="677" fill="#A6CFEB"/>
<path fill-rule="evenodd" clip-rule="evenodd" d="M150.252 298.556C169.433 300.102 187.157 291.942 198.589 278.189C204.984 293.132 219.24 304.118 236.567 305.515C247.677 306.411 258.173 303.212 266.57 297.183C270.677 300.999 276.05 303.511 282.072 303.997C296.302 305.144 308.768 294.538 309.915 280.308C311.062 266.078 300.456 253.613 286.227 252.465C285.725 252.425 285.226 252.399 284.73 252.388C281.184 232.671 264.746 217.021 243.837 215.335C230.83 214.287 218.666 218.849 209.726 226.996C203.628 204.494 183.966 187.168 159.391 185.187C135.032 183.223 113.022 196.915 103.266 217.836C100.503 217.044 97.6209 216.513 94.6459 216.274C70.455 214.323 49.2635 232.353 47.3133 256.544C47.2357 257.507 47.1897 258.465 47.1745 259.417C45.8982 259.124 44.5848 258.919 43.2407 258.811C28.2992 257.607 15.2103 268.743 14.0058 283.684C12.8013 298.625 23.9373 311.714 38.8788 312.919C50.9235 313.89 61.7643 306.841 66.1461 296.245C72.2902 300.495 79.6016 303.233 87.5839 303.877C101.756 305.019 114.898 299.305 123.746 289.511C131.434 294.536 140.453 297.766 150.252 298.556Z" fill="#5ABF33"/>
<path fill-rule="evenodd" clip-rule="evenodd" d="M150.252 298.556C169.433 300.102 187.157 291.942 198.589 278.189C204.984 293.132 219.24 304.118 236.567 305.515C247.677 306.411 258.173 303.212 266.57 297.183C270.677 300.999 276.05 303.511 282.072 303.997C296.302 305.144 308.768 294.538 309.915 280.308C311.062 266.078 300.456 253.613 286.227 252.465C285.725 252.425 285.226 252.399 284.73 252.388C281.184 232.671 264.746 217.021 243.837 215.335C230.83 214.287 218.666 218.849 209.726 226.996C203.628 204.494 183.966 187.168 159.391 185.187C135.032 183.223 113.022 196.915 103.266 217.836C100.503 217.044 97.6209 216.513 94.6459 216.274C70.455 214.323 49.2635 232.353 47.3133 256.544C47.2357 257.507 47.1897 258.465 47.1745 259.417C45.8982 259.124 44.5848 258.919 43.2407 258.811C28.2992 257.607 15.2103 268.743 14.0058 283.684C12.8013 298.625 23.9373 311.714 38.8788 312.919C50.9235 313.89 61.7643 306.841 66.1461 296.245C72.2902 300.495 79.6016 303.233 87.5839 303.877C101.756 305.019 114.898 299.305 123.746 289.511C131.434 294.536 140.453 297.766 150.252 298.556Z" fill="#5ABF33"/>
<path d="M0 283C0 283 487.403 256 800 256C1112.6 256 1600 283 1600 283V677H0V283Z" fill="#A3E837"/>
<path d="M845 0L1017.34 289.5H672.661L845 0Z" fill="#A19D77"/>
<path d="M805 94.2003L808.914 61.2267L845.263 0L890 75.6622L879.059 100.875L860.545 74.1756L843.713 112L831.089 68.984L805 94.2003Z" fill="#E7E1D5"/>
<path d="M1015 102L1144.9 289.5H885.096L1015 102Z" fill="#A19D77"/>
<path opacity="0.05" d="M785 288L846 0L679 277.5L785 288Z" fill="black"/>
<path opacity="0.05" d="M970.5 290L1015 102L887.5 290H970.5Z" fill="black"/>
<path fill-rule="evenodd" clip-rule="evenodd" d="M685.634 302.731C698.092 303.735 709.657 298.799 717.544 290.296C722.339 294.342 728.398 296.985 735.129 297.527C743.814 298.227 751.954 295.298 758.056 290.01C760.855 292.513 764.464 294.156 768.495 294.481C778.303 295.271 786.895 287.961 787.686 278.153C788.477 268.344 781.166 259.752 771.358 258.961C770.193 258.867 769.044 258.888 767.924 259.013C764.812 246.326 753.876 236.476 740.14 235.368C732.886 234.784 726.012 236.731 720.388 240.47C713.89 231.623 703.734 225.539 691.934 224.588C678.523 223.507 666.145 229.31 658.279 239.037C654.942 237.389 651.242 236.333 647.306 236.015C631.945 234.777 618.339 245.226 615.24 259.916C614.157 259.625 613.032 259.428 611.874 259.335C601.575 258.505 592.553 266.181 591.723 276.479C590.893 286.778 598.568 295.8 608.867 296.63C615.465 297.162 621.538 294.203 625.27 289.301C629.941 293.273 635.859 295.868 642.438 296.398C649.358 296.956 655.921 295.142 661.329 291.637C667.652 297.849 676.108 301.963 685.634 302.731Z" fill="#5ABF33"/>
<path fill-rule="evenodd" clip-rule="evenodd" d="M685.634 302.731C698.092 303.735 709.657 298.799 717.544 290.296C722.339 294.342 728.398 296.985 735.129 297.527C743.814 298.227 751.954 295.298 758.056 290.01C760.855 292.513 764.464 294.156 768.495 294.481C778.303 295.271 786.895 287.961 787.686 278.153C788.477 268.344 781.166 259.752 771.358 258.961C770.193 258.867 769.044 258.888 767.924 259.013C764.812 246.326 753.876 236.476 740.14 235.368C732.886 234.784 726.012 236.731 720.388 240.47C713.89 231.623 703.734 225.539 691.934 224.588C678.523 223.507 666.145 229.31 658.279 239.037C654.942 237.389 651.242 236.333 647.306 236.015C631.945 234.777 618.339 245.226 615.24 259.916C614.157 259.625 613.032 259.428 611.874 259.335C601.575 258.505 592.553 266.181 591.723 276.479C590.893 286.778 598.568 295.8 608.867 296.63C615.465 297.162 621.538 294.203 625.27 289.301C629.941 293.273 635.859 295.868 642.438 296.398C649.358 296.956 655.921 295.142 661.329 291.637C667.652 297.849 676.108 301.963 685.634 302.731Z" fill="#5ABF33"/>
<path fill-rule="evenodd" clip-rule="evenodd" d="M961.277 326.31C969.02 326.96 976.285 324.349 981.716 319.622C985.098 322.524 989.391 324.428 994.171 324.83C1000.33 325.347 1006.1 323.272 1010.42 319.516C1012.45 321.552 1015.18 322.908 1018.27 323.167C1025.17 323.747 1031.24 318.618 1031.82 311.712C1032.4 304.805 1027.27 298.736 1020.37 298.156C1019.38 298.073 1018.41 298.107 1017.47 298.246C1015.46 289.079 1007.69 281.887 997.848 281.06C993.749 280.716 989.819 281.521 986.374 283.206C981.849 276.6 974.501 272.008 965.9 271.286C955.439 270.407 945.851 275.481 940.476 283.686C938.582 282.938 936.549 282.451 934.416 282.272C924.183 281.412 915.032 287.924 912.196 297.383C911.301 297.106 910.362 296.921 909.39 296.839C902.138 296.23 895.765 301.615 895.156 308.867C894.547 316.119 899.932 322.492 907.183 323.101C911.362 323.452 915.248 321.813 917.908 318.974C921.308 322.218 925.797 324.367 930.844 324.791C936.55 325.27 941.919 323.457 946.045 320.12C950.228 323.568 955.467 325.822 961.277 326.31Z" fill="#5ABF33"/>
<path fill-rule="evenodd" clip-rule="evenodd" d="M961.277 326.31C969.02 326.96 976.285 324.349 981.716 319.622C985.098 322.524 989.391 324.428 994.171 324.83C1000.33 325.347 1006.1 323.272 1010.42 319.516C1012.45 321.552 1015.18 322.908 1018.27 323.167C1025.17 323.747 1031.24 318.618 1031.82 311.712C1032.4 304.805 1027.27 298.736 1020.37 298.156C1019.38 298.073 1018.41 298.107 1017.47 298.246C1015.46 289.079 1007.69 281.887 997.848 281.06C993.749 280.716 989.819 281.521 986.374 283.206C981.849 276.6 974.501 272.008 965.9 271.286C955.439 270.407 945.851 275.481 940.476 283.686C938.582 282.938 936.549 282.451 934.416 282.272C924.183 281.412 915.032 287.924 912.196 297.383C911.301 297.106 910.362 296.921 909.39 296.839C902.138 296.23 895.765 301.615 895.156 308.867C894.547 316.119 899.932 322.492 907.183 323.101C911.362 323.452 915.248 321.813 917.908 318.974C921.308 322.218 925.797 324.367 930.844 324.791C936.55 325.27 941.919 323.457 946.045 320.12C950.228 323.568 955.467 325.822 961.277 326.31Z" fill="#5ABF33"/>
<path d="M344.783 217.988C343.889 209.285 339.53 201.139 332.82 195.536C330.498 193.596 328.074 192.096 325.55 190.957C326.027 188.04 326.143 185.09 325.846 182.198C324.907 173.052 320.326 164.492 313.275 158.602C306.63 153.052 299.186 150.92 290.998 150.59C288.932 145.312 285.56 140.561 281.177 136.899C273.817 130.752 265.431 129.004 256.093 129.247C238.176 129.713 224.935 148.07 225.886 164.934C218.415 170.221 213.245 179.007 211.972 188.062C207.035 190.227 202.802 193.383 199.291 197.55C193.39 204.614 190.552 213.954 191.494 223.111C192.406 231.98 196.847 240.281 203.685 245.992C206.194 247.585 208.704 249.177 211.214 250.769C216.955 253.391 222.965 254.399 229.248 253.79C232.139 253.102 235.03 252.415 237.922 251.729C239.43 251.147 240.87 250.47 242.252 249.711C242.708 250.129 243.172 250.538 243.646 250.935C246.657 252.846 249.668 254.756 252.679 256.665C259.566 259.812 266.776 261.02 274.312 260.29L284.719 257.817C288.807 256.24 292.505 254.115 295.824 251.459C301.585 254.323 307.878 255.212 314.678 255.035C333.078 254.557 346.553 235.209 344.783 217.988Z" fill="#51AC2E"/>
<path d="M226.653 253.95C221.306 254.089 216.159 253.028 211.214 250.768C208.704 249.177 206.194 247.585 203.685 245.992C196.847 240.281 192.406 231.98 191.494 223.111C191.405 222.253 191.351 221.393 191.328 220.533C191.111 212.223 193.944 203.951 199.291 197.549C202.802 193.383 207.035 190.227 211.972 188.062C213.245 179.007 218.415 170.22 225.886 164.934C225.868 164.621 225.856 164.307 225.848 163.994C225.428 147.395 238.509 129.704 256.093 129.247C265.431 129.004 273.817 130.752 281.177 136.899C282.222 137.772 283.205 138.711 284.132 139.701C248.815 149.753 222.752 183.189 223.742 221.268C224.038 232.643 226.726 243.479 231.301 253.301C230.865 253.404 230.431 253.508 229.996 253.612C229.746 253.671 229.497 253.73 229.248 253.79C228.377 253.874 227.513 253.927 226.653 253.95Z" fill="#448030"/>
<path d="M265.223 311.255L271.629 224.468L275.091 224.378L285.998 310.715L265.223 311.255Z" fill="#503024"/>
<path d="M272.374 251.638L288.244 240.161L289.29 241.154L278.655 257.599L272.374 251.638Z" fill="#503024"/>
<path d="M273.029 276.802L261.552 260.932L262.546 259.886L278.99 270.523L273.029 276.802Z" fill="#503024"/>
<path d="M1518.63 291.936C1517.9 282.481 1513.66 273.499 1506.91 266.878C1507.83 265.505 1508.67 264.061 1509.43 262.547C1512.54 256.201 1513.84 249.504 1513.34 242.46C1513.27 242.09 1513.21 241.719 1513.14 241.349C1512.6 234.634 1510.45 228.479 1506.7 222.882C1501.05 214.502 1492.19 208.637 1482.26 206.707C1472.33 204.777 1461.93 206.897 1453.54 212.551C1452.48 213.271 1451.45 214.05 1450.45 214.879C1449.88 214.295 1449.28 213.724 1448.67 213.181L1440.72 207.844C1434.63 204.87 1428.21 203.622 1421.45 204.099C1418.33 204.756 1415.21 205.412 1412.08 206.069C1406.01 208.233 1400.84 211.725 1396.56 216.544C1395.86 217.334 1395.21 218.158 1394.59 219.003C1390.64 218.913 1386.75 219.516 1382.92 220.845C1377.46 222.79 1372.8 225.929 1368.96 230.262C1365.02 234.772 1362.47 239.964 1361.31 245.843C1361.12 246.846 1360.99 247.845 1360.89 248.842C1358.73 250.563 1356.71 252.468 1354.82 254.587C1349.19 261.041 1345.54 268.475 1343.88 276.887C1342.27 285.31 1342.87 293.569 1345.67 301.662C1345.8 301.995 1345.92 302.327 1346.04 302.658C1348.8 310.408 1353.26 317.014 1359.41 322.477C1365.81 328.062 1373.18 331.679 1381.53 333.329C1389.88 334.925 1398.07 334.332 1406.1 331.551C1408.05 330.572 1409.99 329.592 1411.94 328.612C1412.9 329.739 1413.94 330.803 1415.06 331.787C1421.68 337.615 1429.35 339.421 1437.94 339.421C1446.47 339.421 1453.97 334.983 1459.15 328.546C1466.16 332.707 1473.96 334.124 1482.48 334.124C1492.29 334.124 1502.67 328.039 1508.96 320.887C1515.91 312.997 1519.43 302.418 1518.63 291.936Z" fill="#51AC2E"/>
<path d="M1390.6 334.246C1387.59 334.246 1384.57 333.954 1381.53 333.373C1373.18 331.724 1365.81 328.107 1359.41 322.521C1353.26 317.058 1348.8 310.452 1346.04 302.703C1345.92 302.371 1345.8 302.039 1345.67 301.707C1343.89 296.552 1343 291.329 1343 286.04C1343 291.314 1343.89 296.521 1345.67 301.662C1345.8 301.994 1345.92 302.327 1346.04 302.658C1348.8 310.408 1353.26 317.014 1359.41 322.477C1365.81 328.062 1373.18 331.679 1381.53 333.328C1384.57 333.911 1387.6 334.201 1390.6 334.201C1395.26 334.201 1399.87 333.501 1404.42 332.099C1404.44 332.109 1404.46 332.117 1404.47 332.126C1399.9 333.539 1395.27 334.246 1390.6 334.246Z" fill="url(#paint0_radial_2_47)"/>
<path d="M1390.6 334.201C1387.6 334.201 1384.57 333.911 1381.53 333.329C1373.18 331.679 1365.81 328.062 1359.41 322.477C1353.26 317.014 1348.8 310.408 1346.04 302.658C1345.92 302.327 1345.8 301.995 1345.67 301.662C1343.89 296.521 1343 291.314 1343 286.04C1343 283.026 1343.3 279.989 1343.88 276.932C1345.54 268.519 1349.19 261.085 1354.82 254.632C1356.71 252.512 1358.73 250.607 1360.89 248.886C1360.99 247.89 1361.12 246.891 1361.31 245.887C1362.47 240.009 1365.02 234.816 1368.96 230.307C1372.8 225.973 1377.46 222.835 1382.92 220.89C1386.5 219.647 1390.14 219.039 1393.82 219.039C1394.07 219.039 1394.33 219.042 1394.59 219.048C1395.21 218.203 1395.86 217.379 1396.56 216.588C1400.84 211.768 1406.01 208.277 1412.08 206.113C1413.27 205.864 1414.45 205.615 1415.64 205.367C1412.37 209.903 1409.68 214.877 1407.72 220.182C1401.08 223.21 1394.96 227.402 1389.73 232.629C1386.52 236.79 1383.3 240.95 1380.09 245.11C1374.51 254.728 1371.7 265.103 1371.67 276.234C1371.63 276.683 1371.63 277.136 1371.6 277.585C1372.34 283.055 1373.07 288.524 1373.81 293.996C1376.74 304.452 1382.03 313.533 1389.68 321.235C1394.05 325.599 1399.03 329.247 1404.42 332.099C1399.87 333.501 1395.26 334.201 1390.6 334.201Z" fill="#448030"/>
<path d="M1429.69 385.776L1439.61 286.599H1443.58L1453.49 385.776H1429.69Z" fill="#503024"/>
<path d="M1443.16 321.267L1458.75 305.677L1443.16 321.267Z" fill="#79BA44"/>
<path d="M1439.65 317.76L1458.17 305.092L1459.33 306.261L1446.67 324.774L1439.65 317.76Z" fill="#503024"/>
<path d="M1443.16 343.085L1427.57 327.496L1443.16 343.085Z" fill="#79BA44"/>
<path d="M1439.65 346.593L1426.99 328.08L1428.15 326.911L1446.67 339.579L1439.65 346.593Z" fill="#503024"/>
<path d="M334.464 276.001L323.953 279.621C323.647 279.726 323.309 279.606 323.14 279.331L322.827 278.823C322.306 277.978 322.01 277.014 321.968 276.023C321.955 275.719 322.144 275.442 322.432 275.342L332.98 271.71L334.464 276.001Z" fill="#4848F5"/>
<path d="M323.739 279.659C323.739 279.659 323.738 279.659 323.736 279.659C323.51 279.662 323.291 279.553 323.159 279.36C323.156 279.356 323.153 279.352 323.151 279.348C323.15 279.347 323.149 279.346 323.149 279.345C323.146 279.341 323.143 279.336 323.14 279.331L322.827 278.823C322.306 277.978 322.01 277.014 321.968 276.023C321.967 276.016 321.967 276.009 321.967 276.001C321.963 275.706 322.15 275.439 322.432 275.342L322.564 275.297C322.642 276.197 322.928 277.069 323.403 277.841L323.716 278.349C323.847 278.561 324.077 278.681 324.316 278.677C324.387 278.676 324.459 278.663 324.53 278.639L328.36 277.32C328.286 277.6 328.187 277.901 328.078 278.201L327.496 278.401L323.953 279.622C323.883 279.645 323.812 279.658 323.741 279.659C323.74 279.659 323.74 279.659 323.739 279.659ZM332.136 276.803C332.281 276.546 332.427 276.251 332.565 275.872L333.917 275.406C333.935 275.442 333.954 275.477 333.973 275.512C334.084 275.714 334.232 275.885 334.405 276.022L332.136 276.803Z" fill="#3333A0"/>
<path d="M332.786 271.994C332.918 272.899 333.233 274.16 333.974 275.513C334.348 276.196 335.148 276.529 335.905 276.341L350.195 272.776L347.234 264.79L333.858 270.143C333.116 270.44 332.671 271.204 332.786 271.994Z" fill="#3F3FAA"/>
<path d="M335.509 276.393C335.107 276.399 334.716 276.267 334.405 276.022C334.232 275.886 334.084 275.715 333.974 275.513C333.955 275.477 333.936 275.442 333.917 275.407C333.217 274.094 332.914 272.875 332.786 271.994C332.785 271.991 332.785 271.988 332.785 271.985C332.785 271.984 332.784 271.983 332.784 271.981C332.784 271.98 332.784 271.979 332.784 271.977C332.783 271.976 332.783 271.974 332.783 271.972C332.783 271.971 332.783 271.97 332.783 271.97C332.782 271.967 332.782 271.965 332.782 271.963C332.782 271.963 332.782 271.963 332.782 271.962C332.7 271.317 332.991 270.693 333.511 270.331C333.511 270.409 333.516 270.487 333.527 270.566C333.659 271.472 333.974 272.733 334.715 274.086C335.024 274.65 335.624 274.976 336.25 274.965C336.382 274.963 336.515 274.946 336.647 274.914L345.907 272.604C346.283 273.078 346.829 273.381 347.419 273.468L335.905 276.34C335.774 276.373 335.641 276.39 335.509 276.393Z" fill="#49499B"/>
<path d="M344.049 267.413C344.23 268.664 344.667 270.408 345.691 272.278C346.208 273.222 347.314 273.683 348.361 273.422L367.713 268.513L364.023 257.453L345.531 264.854C344.505 265.264 343.89 266.321 344.049 267.413Z" fill="#4848F5"/>
<path d="M347.812 273.494C347.68 273.496 347.549 273.487 347.42 273.468C346.829 273.381 346.283 273.077 345.907 272.603C345.827 272.502 345.755 272.393 345.691 272.278C344.667 270.408 344.23 268.664 344.049 267.413C344.048 267.409 344.048 267.405 344.047 267.402C344.047 267.4 344.047 267.398 344.046 267.396C344.046 267.394 344.046 267.393 344.045 267.391C344.045 267.389 344.045 267.386 344.045 267.384C344.045 267.383 344.044 267.382 344.044 267.381C343.99 266.964 344.048 266.554 344.198 266.182C344.486 267.387 344.971 268.807 345.789 270.299C346.273 271.182 347.211 271.691 348.19 271.675C348.396 271.672 348.604 271.645 348.81 271.594L364.901 267.512L365.268 268.629C365.271 268.637 365.274 268.644 365.276 268.652C365.278 268.657 365.28 268.663 365.282 268.669C365.282 268.67 365.283 268.67 365.283 268.671C365.284 268.674 365.285 268.676 365.286 268.679C365.338 268.823 365.41 268.956 365.496 269.075L348.361 273.422C348.179 273.467 347.995 273.491 347.812 273.494Z" fill="#3333A0"/>
<path d="M367.332 269.67C366.474 269.951 365.551 269.485 365.269 268.628L361.84 258.2C361.559 257.344 362.026 256.422 362.884 256.141C363.742 255.86 364.666 256.327 364.947 257.183L368.376 267.612C368.657 268.467 368.19 269.389 367.332 269.67Z" fill="#3333A0"/>
<path d="M342.716 275.031L342.85 277.965L349.663 277.654L349.251 268.624C349.233 268.236 348.903 267.935 348.514 267.953C348.125 267.971 347.824 268.3 347.842 268.688L348.19 276.313L344.194 276.495L344.124 274.967C344.107 274.579 343.777 274.279 343.388 274.296C342.999 274.314 342.698 274.643 342.716 275.031Z" fill="black"/>
<path d="M348.748 305.861L346.559 305.961L345.244 277.154L347.432 277.054L348.748 305.861Z" fill="black"/>
<path d="M351.123 306.78L344.261 307.092L344.215 306.067L351.076 305.755L351.123 306.78Z" fill="black"/>
<path d="M349.532 306.045L352.497 322.599L353.885 322.352L350.92 305.798" fill="black"/>
<path d="M347.043 306.056L347.713 322.727L349.121 322.671L348.452 306" fill="black"/>
<path d="M344.356 306.096L342.913 322.851L344.317 322.972L345.761 306.217" fill="black"/>
<defs>
<radialGradient id="paint0_radial_2_47" cx="0" cy="0" r="1" gradientUnits="userSpaceOnUse" gradientTransform="translate(1216.86 498.838) scale(464.148 464.148)">
<stop stop-color="#79BA44"/>
<stop offset="0.696742" stop-color="#79BA44"/>
<stop offset="1" stop-color="#72AA40"/>
</radialGradient>
</defs>
</svg>
