<svg width="263" height="148" viewBox="0 0 263 148" fill="none" xmlns="http://www.w3.org/2000/svg">
<path d="M233.363 88.2733C232.593 88.2787 231.832 88.3188 231.076 88.3798C231.077 88.1503 231.078 87.9138 231.077 87.6843C230.916 64.9132 213.713 46.2339 191.553 43.4342C191.555 43.309 191.571 43.1697 191.57 43.0376C191.534 37.8838 187.297 33.7475 182.105 33.7841C180.812 33.7933 179.581 34.0592 178.464 34.5331C167.867 14.4509 146.594 0.815393 122.165 0.98782C93.295 1.1916 69.0957 20.6221 61.8324 46.9442C59.5376 46.2579 57.0964 45.8927 54.5702 45.9105C41.0697 46.0058 30.2021 56.933 30.2967 70.3356C30.3255 74.4113 31.3773 78.2572 33.1979 81.6178C15.1065 82.1697 0.67116 96.9337 0.798555 114.982C0.927814 133.295 15.9988 148.032 34.4604 147.902C52.9249 147.771 221.295 146.583 233.774 146.495C249.989 146.38 263.039 133.254 262.925 117.173C262.812 101.1 249.578 88.1588 233.363 88.2733Z" fill="white"/>
</svg>
