<svg width="112" height="70" viewBox="0 0 112 70" fill="none" xmlns="http://www.w3.org/2000/svg">
<path d="M2.5727 52.4835C1.86429 51.0178 1.51763 49.3578 1.64269 47.6167C2.02263 42.3266 6.61315 38.3449 11.9019 38.7248C12.8511 38.793 13.7585 38.9987 14.6067 39.3183C14.5504 38.4583 14.5528 37.5803 14.6162 36.697C15.1532 29.221 19.8942 23.0562 26.3558 20.3458C25.6321 18.4256 25.3011 16.326 25.4579 14.1433C26.0357 6.09856 33.0217 0.0406277 41.0628 0.618162C46.9262 1.03929 51.7306 4.87497 53.6764 10.0383C55.8335 8.17163 58.7041 7.12272 61.7738 7.3432C66.8595 7.70846 70.8993 11.4382 71.8847 16.2003C73.2785 16.0322 74.7077 15.9911 76.1617 16.0955C88.3804 16.9731 97.5731 27.5974 96.6945 39.8296C96.5781 41.45 96.2901 43.0165 95.8509 44.5115C96.4688 44.4378 97.0988 44.4191 97.7432 44.4654C103.146 44.8535 107.209 49.5493 106.821 54.9601C106.73 56.2214 106.402 57.4114 105.888 58.489C106.112 58.4796 106.338 58.4799 106.567 58.4963C109.681 58.72 112.021 61.427 111.797 64.5406C111.574 67.6543 108.871 69.9991 105.757 69.7754C102.646 69.552 8.56176 62.7946 5.63483 62.5844C2.52378 62.3609 0.181444 59.6538 0.405076 56.5401C0.524651 54.8753 1.35275 53.4306 2.5727 52.4835Z" fill="white"/>
</svg>
