<svg width="154" height="154" viewBox="0 0 154 154" fill="none" xmlns="http://www.w3.org/2000/svg">
<path d="M122.226 104.254C107.665 128.613 75.4573 138.14 52.6144 121.684C29.8256 105.228 20.9483 75.8358 35.1845 52.0727C49.7455 27.7142 81.9529 18.1873 104.796 34.6428C127.585 51.0984 136.462 80.491 122.226 104.254Z" fill="#FDE06F"/>
<path d="M126.015 55.8621L143.932 38.9194L119.519 45.3609C122.063 48.6629 124.228 52.2354 126.015 55.8621Z" fill="#F6BB4A"/>
<path d="M130.074 67.0129L139.493 61.8164L128.505 61.8706C129.154 63.5486 129.641 65.2807 130.074 67.0129Z" fill="#F6BB4A"/>
<path d="M131.536 82.8733L154 77.5144L130.941 71.2354C131.59 75.0786 131.807 78.9759 131.536 82.8733Z" fill="#F6BB4A"/>
<path d="M117.246 42.6546L123.362 32.5322L113.24 38.4324C114.647 39.7856 116.001 41.193 117.246 42.6546Z" fill="#F6BB4A"/>
<path d="M94.5111 26.4155L94.7276 15.2646L89.2063 24.8998C90.9926 25.2787 92.7789 25.82 94.5111 26.4155Z" fill="#F6BB4A"/>
<path d="M83.252 24.0338L77.5142 0L70.8021 24.5751C74.916 23.8714 79.084 23.6548 83.252 24.0338Z" fill="#F6BB4A"/>
<path d="M106.095 32.4781C107.015 33.1277 107.935 33.8314 108.801 34.5351L115.947 10.6096L98.4084 27.9854C101.061 29.1762 103.605 30.6918 106.095 32.4781Z" fill="#F6BB4A"/>
<path d="M38.9737 42.6545C40.4893 40.9223 42.0591 39.2984 43.7371 37.8369L32.045 30.7458L38.9737 42.6545Z" fill="#F6BB4A"/>
<path d="M130.453 90.4514C130.129 92.0212 129.696 93.5368 129.208 95.0525L138.844 95.269L130.453 90.4514Z" fill="#F6BB4A"/>
<path d="M116.758 115.622C115.676 116.759 114.485 117.895 113.294 118.924L121.576 123.904L116.758 115.622Z" fill="#F6BB4A"/>
<path d="M26.9026 66.3095C27.3898 64.036 28.0394 61.8167 28.7972 59.6515L14.7234 59.3809L26.9026 66.3095Z" fill="#F6BB4A"/>
<path d="M127.422 99.762C126.556 101.711 125.582 103.659 124.445 105.5C123.633 106.853 122.767 108.206 121.847 109.451L143.445 115.893L127.422 99.762Z" fill="#F6BB4A"/>
<path d="M37.4039 110.208L30.2587 122.063L41.7343 115.405C40.1645 113.727 38.7571 111.995 37.4039 110.208Z" fill="#F6BB4A"/>
<path d="M59.0559 128.342L58.8394 139.331L64.0359 130.291C62.3578 129.75 60.6798 129.1 59.0559 128.342Z" fill="#F6BB4A"/>
<path d="M71.2351 131.969L76.4858 154L82.3859 132.294C78.6509 132.619 74.916 132.51 71.2351 131.969Z" fill="#F6BB4A"/>
<path d="M51.3694 123.85C49.2583 122.334 47.2555 120.656 45.361 118.924L38.1075 143.391L55.3209 126.34C53.9135 125.636 52.6144 124.77 51.3694 123.85Z" fill="#F6BB4A"/>
<path d="M99.6534 127.693L115.026 143.932L109.289 122.063C106.257 124.283 103.009 126.177 99.6534 127.693Z" fill="#F6BB4A"/>
<path d="M67.2295 25.333L61.3294 14.6152L61.3835 27.1734C63.278 26.4156 65.2267 25.8202 67.2295 25.333Z" fill="#F6BB4A"/>
<path d="M87.6365 131.59L92.2917 140.035V130.454C90.722 130.887 89.1522 131.266 87.6365 131.59Z" fill="#F6BB4A"/>
<path d="M56.8907 29.068L38.9195 10.0684L45.7399 36.1049C49.2042 33.2901 52.9392 30.9084 56.8907 29.068Z" fill="#F6BB4A"/>
<path d="M33.0193 50.774C34.0478 49.0419 35.1845 47.3638 36.4295 45.7399L10.5554 38.0535L29.6633 57.3779C30.6376 55.1585 31.7202 52.9392 33.0193 50.774Z" fill="#F6BB4A"/>
<path d="M26.632 85.8503L14.0738 92.779L28.31 92.7249C27.6063 90.5055 27.065 88.1779 26.632 85.8503Z" fill="#F6BB4A"/>
<path d="M26.2531 70.2065L0 76.4856L26.3072 83.6849C25.7118 79.1921 25.6576 74.6993 26.2531 70.2065Z" fill="#F6BB4A"/>
<path d="M29.6633 96.4595L10.0141 115.026L35.9423 108.206C33.3982 104.525 31.2872 100.573 29.6633 96.4595Z" fill="#F6BB4A"/>
</svg>
