<svg width="42" height="40" viewBox="0 0 42 40" fill="none" xmlns="http://www.w3.org/2000/svg">
<path fill-rule="evenodd" clip-rule="evenodd" d="M42 26.783C38.0678 28.2349 33.7768 28.5673 29.6497 27.7398C25.5225 26.9122 21.7372 24.9605 18.7548 22.1221C15.7724 19.2838 13.7215 15.6814 12.852 11.7536C11.9825 7.82587 12.3318 3.74222 13.8574 0C9.13414 1.75177 5.20185 5.01809 2.73945 9.23502C0.277046 13.4519 -0.560904 18.3548 0.370273 23.097C1.30145 27.8393 3.94331 32.1232 7.83971 35.2093C11.7361 38.2953 16.6425 39.9898 21.7117 40C26.0995 40.0011 30.3852 38.7394 34.0059 36.3806C37.6267 34.0219 40.4133 30.6762 42 26.783V26.783Z" fill="#FF9A00"/>
</svg>
