<svg width="48" height="47" viewBox="0 0 48 47" fill="none" xmlns="http://www.w3.org/2000/svg">
<path d="M46.4486 16.55L32.0591 14.4057L25.6267 1.0344C25.451 0.668298 25.1619 0.371932 24.8049 0.191788C23.9094 -0.261478 22.8213 0.116244 22.3736 1.0344L15.9411 14.4057L1.55164 16.55C1.15492 16.6082 0.792211 16.7999 0.514509 17.0905C0.178784 17.4443 -0.00621659 17.9203 0.000159514 18.4139C0.00653562 18.9075 0.203766 19.3783 0.548513 19.7229L10.9595 30.1306L8.49984 44.8269C8.44216 45.1687 8.47906 45.5203 8.60634 45.8418C8.73363 46.1632 8.94621 46.4417 9.21999 46.6456C9.49376 46.8495 9.81777 46.9706 10.1553 46.9953C10.4928 47.02 10.8303 46.9472 11.1295 46.7852L24.0001 39.8467L36.8707 46.7852C37.2221 46.977 37.6302 47.0409 38.0212 46.9712C39.0073 46.7968 39.6704 45.838 39.5004 44.8269L37.0407 30.1306L47.4517 19.7229C47.7351 19.4382 47.9221 19.0662 47.9788 18.6595C48.1318 17.6425 47.4404 16.7011 46.4486 16.55Z" fill="#F7F7F7"/>
</svg>
