<svg xmlns="http://www.w3.org/2000/svg" width="26" height="36">
    <g>
        <path d="M25.0708 0.20648C24.7909 0.0536017 24.4759 -0.016661 24.1602 0.00333201C23.8445 0.023325 23.5401 0.132808 23.2801 0.319878L0.743691 16.5196C0.514095 16.6859 0.326589 16.9074 0.197115 17.1652C0.0676421 17.4229 3.05176e-05 17.7093 3.05176e-05 18C3.05176e-05 18.2907 0.0676421 18.5772 0.197115 18.8349C0.326589 19.0927 0.514095 19.3141 0.743691 19.4805L23.2801 35.6802C23.5401 35.8671 23.8445 35.9765 24.1602 35.9966C24.4758 36.0167 24.7908 35.9468 25.071 35.7944C25.3511 35.642 25.5858 35.413 25.7495 35.132C25.9133 34.8511 25.9999 34.529 26 34.2006V1.80125C26.0001 1.47269 25.9135 1.15038 25.7497 0.869261C25.5859 0.588141 25.3512 0.358932 25.0708 0.20648ZM22.5329 30.7645L4.77597 18.0009L22.5329 5.23738V30.7645Z" fill="#FF9A00" id="svg_1" />
        <path fill="#FF9A00" stroke-width="0" stroke-dashoffset="" fill-rule="nonzero" marker-start="" marker-mid="" marker-end="" id="svg_3" d="M0.8252250126413407,26.91891863879755 L13.624451864665197,9.081081772932514 L26.423678716689647,26.91891863879755 L0.8252250126413407,26.91891863879755 z" transform="rotate(-90 13.624450683593755,18.000000000000004)" />
    </g>
</svg>