<svg width="292" height="197" viewBox="0 0 292 197" fill="none" xmlns="http://www.w3.org/2000/svg">
<path d="M241.14 126.793C224.242 177.148 169.725 204.268 119.369 187.371C69.0139 170.474 41.8903 115.957 58.7876 65.601C75.6848 15.2455 130.202 -11.8745 180.561 5.02269C230.913 21.9199 258.037 76.4373 241.14 126.793Z" fill="#75C4B5"/>
<path d="M119.796 187.513C119.786 187.51 119.775 187.506 119.765 187.503C119.765 187.503 119.761 187.503 119.758 187.5C119.772 187.506 119.786 187.51 119.796 187.513ZM119.588 187.444C119.512 187.42 119.443 187.396 119.37 187.371C119.443 187.396 119.515 187.42 119.588 187.444ZM118.94 187.226C118.93 187.222 118.912 187.215 118.905 187.215C118.916 187.219 118.93 187.222 118.94 187.226ZM118.795 187.177C118.781 187.17 118.774 187.17 118.763 187.167C118.77 187.167 118.784 187.174 118.795 187.177ZM69.4198 148.736C65.7292 143.073 62.6379 137.037 60.2052 130.73L60.2191 130.723C62.6483 137.03 65.7326 143.07 69.4198 148.736ZM146.584 148.282C136.44 148.282 126.124 146.667 115.974 143.26C102.091 138.603 89.9765 131.08 80.062 121.578L88.9263 117.492L76.0282 117.468C71.1247 112.162 66.8519 106.34 63.2721 100.13L85.5997 93.7921L57.6409 88.6564C56.6498 86.2514 55.7557 83.8048 54.9621 81.3202C54.6087 83.5553 54.3384 85.7871 54.1444 88.0153C54.7889 80.5405 56.2963 73.0275 58.7879 65.6011C58.8053 65.5457 58.8227 65.4972 58.8434 65.4417C59.8242 62.5343 60.94 59.7135 62.1667 56.9654L122.35 48.9049L73.592 37.7499C78.0693 31.9038 83.153 26.6398 88.7461 22.0378L131.939 17.0511L148.424 15.1521L132.711 28.3656L216.245 26.5082C217.7 27.8943 219.121 29.3151 220.479 30.7809L134.964 37.1642L237.612 56.664C239.13 60.0219 240.45 63.4664 241.57 66.9803C241.518 67.3061 241.466 67.6319 241.41 67.9576L171.437 80.991L233.922 92.3366C231.409 97.8085 228.425 102.951 225.043 107.73L152.187 117.675L198.315 133.155C183.032 142.897 165.099 148.282 146.584 148.282ZM56.1715 117.429H56.1542C55.0626 112.626 54.3487 107.72 54.0056 102.757H54.0161C54.3557 107.723 55.0834 112.626 56.1715 117.429Z" fill="#61B2A7"/>
<path d="M149.976 192.392C149.972 192.392 149.969 192.392 149.965 192.392C149.969 192.392 149.972 192.392 149.976 192.392ZM150.007 192.392C189.807 192.382 226.939 167.473 240.748 127.933C226.939 167.473 189.81 192.385 150.007 192.392ZM119.37 187.371C119.321 187.354 119.269 187.336 119.224 187.322C119.273 187.34 119.318 187.354 119.37 187.371ZM119.203 187.315C119.203 187.315 119.2 187.312 119.196 187.312C119.196 187.312 119.196 187.312 119.2 187.312L119.203 187.315ZM119.127 187.288C119.11 187.284 119.099 187.281 119.082 187.274C119.092 187.277 119.096 187.277 119.106 187.281C119.113 187.284 119.12 187.288 119.127 187.288ZM119.047 187.264C119.033 187.257 119.016 187.253 119.002 187.246C119.013 187.25 119.02 187.253 119.03 187.257C119.037 187.257 119.04 187.26 119.047 187.264ZM118.898 187.212C118.864 187.201 118.829 187.187 118.794 187.177C118.829 187.187 118.864 187.198 118.898 187.212ZM118.721 187.153C118.694 187.142 118.669 187.132 118.642 187.125C118.652 187.128 118.663 187.128 118.673 187.135C118.69 187.139 118.704 187.146 118.721 187.153ZM118.625 187.118C118.604 187.111 118.583 187.104 118.562 187.094C118.576 187.101 118.586 187.104 118.6 187.111C118.607 187.111 118.618 187.115 118.625 187.118ZM118.514 187.08C118.503 187.076 118.496 187.073 118.489 187.069C118.496 187.073 118.5 187.073 118.503 187.076C118.507 187.076 118.51 187.076 118.514 187.08ZM118.482 187.069C116.039 186.224 113.648 185.288 111.319 184.266C113.537 185.236 115.804 186.13 118.126 186.945C118.129 186.945 118.132 186.948 118.136 186.948C118.198 186.969 118.261 186.99 118.323 187.014C118.333 187.018 118.347 187.021 118.361 187.028C118.403 187.042 118.441 187.052 118.482 187.069ZM111.319 184.266C111.226 184.228 111.132 184.186 111.042 184.145C111.136 184.186 111.226 184.228 111.319 184.266ZM111.039 184.145C110.852 184.062 110.668 183.982 110.484 183.899C110.672 183.982 110.852 184.062 111.039 184.145ZM110.467 183.888C110.429 183.871 110.391 183.857 110.353 183.84C110.391 183.857 110.429 183.874 110.467 183.888ZM110.315 183.822C110.287 183.809 110.256 183.795 110.228 183.781C110.256 183.795 110.287 183.809 110.315 183.822ZM110.165 183.753C110.145 183.743 110.124 183.736 110.1 183.725C110.12 183.736 110.145 183.743 110.165 183.753ZM110.03 183.691C110.013 183.684 109.989 183.673 109.971 183.667C109.992 183.677 110.01 183.684 110.03 183.691ZM109.899 183.632C109.878 183.625 109.864 183.614 109.843 183.608C109.864 183.618 109.878 183.621 109.899 183.632ZM109.764 183.569C109.753 183.566 109.739 183.559 109.729 183.556C109.739 183.559 109.753 183.566 109.764 183.569ZM240.942 127.375C241.008 127.184 241.074 126.987 241.14 126.793C241.074 126.987 241.008 127.184 240.942 127.375ZM241.216 126.571C241.216 126.56 241.219 126.553 241.223 126.547C241.219 126.553 241.216 126.56 241.216 126.571Z" fill="#162331"/>
<path d="M149.976 192.392C149.973 192.392 149.969 192.392 149.966 192.392C139.968 192.392 129.801 190.819 119.796 187.513C124.18 188.962 128.595 190.064 133.013 190.861L187.842 184.578C194.146 181.871 200.148 178.5 205.748 174.514L130.428 156.574L222.351 141.219L198.315 133.155C208.652 126.564 217.776 117.984 225.043 107.729L236.288 106.194C236.185 106.562 236.07 106.929 235.938 107.289C236.677 106.766 237.446 106.312 238.246 105.927L245.732 104.905C245.749 104.732 245.763 104.559 245.78 104.389C245.787 104.389 245.798 104.389 245.804 104.389C245.17 111.774 243.663 119.203 241.223 126.547C241.22 126.553 241.216 126.56 241.216 126.571C241.189 126.644 241.164 126.72 241.14 126.793C241.074 126.987 241.008 127.184 240.943 127.375C240.88 127.562 240.814 127.749 240.748 127.933C226.939 167.473 189.807 192.382 150.007 192.392C149.997 192.392 149.987 192.392 149.976 192.392ZM119.758 187.499C119.702 187.482 119.643 187.461 119.588 187.444C119.647 187.465 119.702 187.482 119.758 187.499ZM119.37 187.371C119.318 187.354 119.273 187.34 119.224 187.322C119.214 187.319 119.214 187.319 119.203 187.315L119.2 187.312C119.256 187.333 119.311 187.35 119.37 187.371ZM119.106 187.281C119.096 187.277 119.093 187.277 119.082 187.274C119.072 187.27 119.058 187.267 119.048 187.264C119.041 187.26 119.037 187.257 119.03 187.257C119.054 187.264 119.082 187.274 119.106 187.281ZM118.673 187.135C118.663 187.128 118.652 187.128 118.642 187.125C118.635 187.121 118.632 187.118 118.625 187.118C118.618 187.115 118.607 187.111 118.601 187.111C118.625 187.118 118.649 187.125 118.673 187.135ZM118.503 187.076C118.5 187.073 118.496 187.073 118.49 187.069H118.483C118.441 187.052 118.403 187.042 118.361 187.028C118.41 187.042 118.458 187.059 118.503 187.076ZM118.323 187.014C118.261 186.99 118.198 186.969 118.136 186.948C118.198 186.969 118.261 186.99 118.323 187.014ZM118.126 186.945C115.804 186.13 113.538 185.236 111.32 184.266C111.316 184.266 111.32 184.269 111.32 184.266C111.226 184.228 111.136 184.186 111.043 184.145H111.039C110.852 184.062 110.672 183.982 110.485 183.899C110.481 183.895 110.471 183.892 110.467 183.888C110.429 183.874 110.391 183.857 110.353 183.84C110.339 183.833 110.329 183.826 110.315 183.822C110.287 183.809 110.256 183.795 110.228 183.781C110.207 183.774 110.186 183.764 110.166 183.753C110.145 183.743 110.121 183.736 110.1 183.725C110.076 183.715 110.055 183.705 110.031 183.691C110.01 183.684 109.992 183.677 109.972 183.667C109.947 183.653 109.923 183.642 109.899 183.632C109.878 183.621 109.864 183.618 109.844 183.608C109.819 183.597 109.788 183.583 109.764 183.569C109.753 183.566 109.74 183.559 109.729 183.556C92.8111 175.786 79.0571 163.54 69.4198 148.735C71.4748 151.889 73.7202 154.928 76.1391 157.832L120.784 162.011L95.1571 175.221C102.105 180.031 109.781 184.017 118.126 186.945ZM60.2191 130.722C58.5557 126.404 57.2007 121.962 56.1715 117.429L76.0282 117.467C77.3278 118.874 78.6758 120.243 80.062 121.577L60.2191 130.722ZM54.0161 102.757C53.6834 97.8878 53.7181 92.96 54.1444 88.0149L57.6409 88.656C59.2627 92.5996 61.1444 96.4323 63.2721 100.13L54.0161 102.757ZM241.147 93.6496L233.922 92.3363C235.353 89.2243 236.632 86.005 237.747 82.6816C239.387 77.7989 240.586 72.8781 241.41 67.9572L241.85 67.8741C241.76 67.576 241.667 67.278 241.57 66.98C241.573 66.973 241.573 66.9662 241.573 66.9592C244.172 75.0786 245.707 83.5653 246.071 92.2184C244.508 92.9635 242.845 93.4452 241.147 93.6496Z" fill="#57AA9E"/>
<path d="M133.013 190.861C128.594 190.064 124.179 188.962 119.796 187.513C119.785 187.51 119.771 187.507 119.758 187.5C119.702 187.482 119.647 187.465 119.588 187.444C119.515 187.42 119.442 187.396 119.369 187.371C119.31 187.351 119.255 187.333 119.2 187.313C119.169 187.302 119.137 187.292 119.106 187.281C119.082 187.274 119.054 187.264 119.03 187.257C118.999 187.247 118.971 187.236 118.94 187.226C118.929 187.222 118.915 187.219 118.905 187.215C118.867 187.202 118.829 187.188 118.794 187.177C118.784 187.174 118.77 187.167 118.763 187.167C118.735 187.157 118.701 187.143 118.673 187.136C118.649 187.125 118.624 187.118 118.6 187.112C118.569 187.098 118.538 187.087 118.503 187.077C118.458 187.059 118.41 187.042 118.361 187.028C118.347 187.021 118.333 187.018 118.323 187.014C118.26 186.99 118.198 186.969 118.136 186.949C118.132 186.949 118.129 186.945 118.125 186.945C109.781 184.017 102.105 180.032 95.1567 175.222L120.783 162.012L76.1387 157.832C73.7199 154.928 71.4744 151.889 69.4195 148.736C65.7323 143.07 62.648 137.03 60.2188 130.723L80.0616 121.578C89.9761 131.08 102.091 138.603 115.973 143.261C126.124 146.667 136.44 148.282 146.583 148.282C165.099 148.282 183.032 142.897 198.314 133.155L222.35 141.219L130.428 156.574L205.748 174.515C200.148 178.5 194.146 181.872 187.842 184.578L133.013 190.861ZM76.0279 117.468L56.1711 117.43C55.083 112.626 54.3554 107.723 54.0157 102.757L63.2718 100.13C66.8515 106.34 71.1244 112.162 76.0279 117.468ZM225.043 107.73C228.425 102.951 231.409 97.8085 233.921 92.3367L241.147 93.6501C240.523 93.7263 239.892 93.7644 239.261 93.7644C237.473 93.7644 235.675 93.4594 233.945 92.8391C236.714 96.7238 237.556 101.638 236.288 106.195L225.043 107.73ZM238.246 105.928C240.388 104.899 242.723 104.372 245.076 104.372C245.308 104.372 245.544 104.379 245.78 104.389C245.763 104.559 245.749 104.732 245.731 104.906L238.246 105.928ZM57.6405 88.6564L54.144 88.0154C54.3381 85.7871 54.6083 83.5554 54.9618 81.3202C55.7554 83.8049 56.6494 86.2514 57.6405 88.6564ZM241.41 67.9576C241.465 67.6319 241.517 67.3061 241.569 66.9804C241.666 67.2784 241.76 67.5765 241.85 67.8745L241.41 67.9576Z" fill="#4C9C93"/>
<path d="M255.064 124.221C255.064 124.221 292.698 172.519 238.132 158.151C219.592 153.272 185.08 139.382 150.984 121.671C142.172 117.097 133.612 112.037 125.354 106.524C93.3929 85.1873 64.5886 61.6469 51.3751 47.7576C12.4831 6.87648 72.9402 16.5657 72.9402 16.5657C50.0825 7.25768 -17.1044 -8.27065 4.07259 40.1997C18.3327 72.8298 65.5312 113.219 120.25 144.404C173.953 177.311 232.095 199.188 267.56 195.948C320.234 191.135 274.234 139.757 255.064 124.221Z" fill="#2E8A82"/>
</svg>
