<svg width="228" height="124" viewBox="0 0 228 124" fill="none" xmlns="http://www.w3.org/2000/svg">
<path d="M215.929 35.086C213.57 35.086 211.367 35.7671 209.506 36.9451C208.3 31.5251 203.49 27.4701 197.73 27.4701C192.839 27.4701 188.63 30.3943 186.733 34.5973C181.798 22.575 170.025 14.1129 156.281 14.1129C151.058 14.1129 146.12 15.3408 141.732 17.5191C134.286 6.92594 122.019 0 108.137 0C99.8556 0 92.1495 2.47663 85.6965 6.71149C80.6119 2.51941 74.1098 0 67.0218 0C50.7333 0 37.5333 13.2733 37.5333 29.6446C37.5333 31.3003 37.6741 32.9219 37.9338 34.503C33.7504 34.996 29.9658 36.7844 26.9799 39.4623C24.1457 36.3237 20.0539 34.3571 15.5061 34.3571C6.94123 34.3571 0 41.3368 0 49.942C0 58.5499 6.94123 65.5269 15.5061 65.5269C15.6872 65.5269 15.8662 65.5164 16.0473 65.512C15.6959 66.7909 15.5061 68.1302 15.5061 69.5226C15.5061 77.8278 22.2019 84.5607 30.4666 84.5607C33.2518 84.5607 35.8585 83.794 38.0898 82.4614C38.0898 82.5321 38.0855 82.6007 38.0855 82.6714C38.0855 98.7318 51.0405 111.752 67.0218 111.752C77.1955 111.752 86.1401 106.472 91.2974 98.4855C94.7093 113.106 107.76 124 123.349 124C137.47 124 149.511 115.066 154.191 102.513C158.338 105.669 163.502 107.543 169.104 107.543C182.345 107.543 193.158 97.0821 193.815 83.9355C194.19 83.9503 194.569 83.9673 194.946 83.9673C206.534 83.9673 215.929 74.5203 215.929 62.8709C215.929 61.671 215.823 60.4929 215.631 59.3424C215.731 59.3468 215.832 59.3533 215.929 59.3533C222.596 59.3533 228 53.9164 228 47.2175C228 40.5164 222.596 35.086 215.929 35.086Z" fill="white"/>
</svg>
