<svg width="174" height="116" viewBox="0 0 174 116" fill="none" xmlns="http://www.w3.org/2000/svg">
<path d="M155.967 35.6304C153.828 35.506 151.755 35.7591 149.81 36.3306C149.884 35.7832 149.943 35.2258 149.976 34.6619C150.69 22.3875 141.35 11.8559 129.119 11.1447C122.431 10.7557 116.263 13.3824 111.928 17.8547C106.572 8.09407 96.4966 1.22919 84.5949 0.537101C70.1848 -0.300846 57.3797 8.15582 51.9682 20.7266C49.4231 19.5577 46.6279 18.8289 43.6673 18.6567C30.87 17.9125 19.8887 27.7225 19.1416 40.57C19.0912 41.4366 19.0916 42.2979 19.1339 43.1464C19.0882 43.1438 19.0428 43.1361 18.9926 43.1331C9.16046 42.5614 0.72697 50.095 0.153189 59.9622C-0.420244 69.8234 7.08286 78.2897 16.9149 78.8615C21.5523 79.1311 25.8776 77.5925 29.2179 74.8612C29.1953 75.0931 29.1723 75.331 29.1586 75.5658C28.3379 89.6793 39.0676 101.776 53.1259 102.593C62.2681 103.125 70.5636 98.7445 75.4725 91.7425C81.0168 104.717 93.4977 114.134 108.497 115.006C129.642 116.235 147.779 100.032 149.013 78.8134C149.167 76.1715 149.052 73.5751 148.694 71.0562C150.31 71.6465 152.04 72.0149 153.845 72.1198C163.882 72.7035 172.499 65.0095 173.085 54.9332C173.671 44.8582 166.004 36.2141 155.967 35.6304Z" fill="white"/>
</svg>
