<svg width="167" height="101" viewBox="0 0 167 101" fill="none" xmlns="http://www.w3.org/2000/svg">
<path d="M161.299 63.7692C164.41 60.8923 166.262 56.6803 165.994 52.0966C165.521 44.0067 158.631 37.8311 150.602 38.3001C149.979 38.3365 149.371 38.414 148.773 38.529C149.044 37.044 149.146 35.5113 149.054 33.9382C148.438 23.3963 139.456 15.348 128.993 15.959C125.865 16.1418 122.959 17.0849 120.435 18.5931C113.631 7.03815 100.831 -0.385792 86.6081 0.4449C70.6596 1.37636 57.6873 12.4076 53.4397 27.008C49.1611 23.743 43.7506 21.9287 37.9723 22.2661C25.0761 23.0193 15.2411 34.16 15.9994 47.144C16.0591 48.1667 16.1896 49.163 16.3701 50.1401C15.5738 50.0529 14.7639 50.0248 13.9372 50.0731C6.0418 50.5342 0.018125 57.3547 0.482356 65.3033C0.946861 73.2566 7.72357 79.3295 15.619 78.8683C17.2935 78.7705 18.8832 78.3851 20.3443 77.7641C21.9131 84.6687 28.2348 89.6301 35.4841 89.2067C39.2911 88.9844 42.6692 87.3179 45.1321 84.7686C48.914 94.6773 58.7229 101.444 69.8047 100.797C76.7106 100.393 82.7848 97.1848 87.0194 92.3395C89.801 96.6294 94.7152 99.3417 100.154 99.024C104.529 98.7685 108.338 96.6012 110.842 93.3785C115.646 97.9149 122.21 100.539 129.302 100.125C142.576 99.35 152.803 88.2245 152.706 74.983C154.129 76.8494 156.408 77.9936 158.914 77.8473C162.933 77.6126 165.997 74.1429 165.761 70.0994C165.592 67.214 163.78 64.8176 161.299 63.7692Z" fill="white"/>
</svg>
