<svg width="152" height="89" viewBox="0 0 152 89" fill="none" xmlns="http://www.w3.org/2000/svg">
<path d="M148.984 75.6156C150.157 73.7532 150.874 71.575 150.969 69.2167C151.256 62.0515 145.689 56.0088 138.526 55.721C137.24 55.6693 135.99 55.8087 134.802 56.1101C135.007 54.9632 135.137 53.7831 135.185 52.5867C135.592 42.4607 130.152 33.4618 121.879 28.8449C123.141 26.374 123.903 23.6029 124.021 20.6464C124.459 9.75004 115.987 0.556026 105.095 0.11844C97.1535 -0.200637 90.1192 4.22803 86.7255 10.872C84.1089 8.03834 80.4102 6.19574 76.2522 6.02869C69.3639 5.75194 63.3729 10.1536 61.3302 16.4035C59.4828 15.9672 57.5687 15.6963 55.5993 15.6172C39.0493 14.9523 25.0943 27.84 24.4286 44.4083C24.3404 46.6031 24.491 48.7514 24.8555 50.8264C24.0364 50.634 23.1928 50.514 22.3199 50.4789C15.0016 50.1849 8.83366 55.8811 8.53922 63.2099C8.47057 64.9183 8.73166 66.5668 9.2604 68.0924C8.96079 68.0459 8.65637 68.0121 8.34678 67.9996C4.12864 67.8302 0.575826 71.1142 0.406384 75.3316C0.236943 79.549 3.51484 83.1074 7.73298 83.2769C11.9468 83.4462 139.381 88.5661 143.346 88.7254C147.559 88.8947 151.115 85.6108 151.285 81.3934C151.375 79.1384 150.481 77.0723 148.984 75.6156Z" fill="white"/>
</svg>
